<svg id="Tag_White_New" data-name="Tag White New" xmlns="http://www.w3.org/2000/svg" width="147.71" height="49.93" viewBox="0 0 147.71 49.93">
  <g id="Group_3" data-name="Group 3">
    <path id="Path_7" data-name="Path 7" d="M47.39,49.63c7.92-3.56,15.58-7.27,23.2-11.07a3.228,3.228,0,0,1,3.25.02c7.12,3.54,14.28,7.01,21.43,10.5.51.25,1.04.47,1.9.85C88.78,33.15,80.57,16.74,72.2,0,63.8,16.8,55.6,33.21,47.39,49.63Z" fill="#fff"/>
    <path id="Path_8" data-name="Path 8" d="M138.84,35.36a14.207,14.207,0,0,1-6.95,1.65c-7.39,0-12.51-5.13-12.51-12.35S124.51,12.31,132,12.31a13.085,13.085,0,0,1,9.98,4.35l5.73-5.29c-3.75-4.35-9.37-6.67-16.15-6.67-12.29,0-21.22,8.32-21.22,19.95S119.27,44.6,131.4,44.6A26.628,26.628,0,0,0,147,39.69V24.04h-8.16v11.3Z" fill="#fff"/>
    <path id="Path_9" data-name="Path 9" d="M0,12.8H12.35V44.1h8.93V15.64L18.8,12.8H33.62V5.52H0Z" fill="#fff"/>
  </g>
</svg>
