<svg xmlns="http://www.w3.org/2000/svg" width="58.649" height="78.388" viewBox="0 0 58.649 78.388">
  <g id="Logo_of_the_United_States_Army" transform="translate(660.883 -293.642)">
    <path id="Path_26" data-name="Path 26" d="M-657.24,293.642a3.507,3.507,0,0,0-3.5,3.514v49.071a3.509,3.509,0,0,0,3.5,3.513h51.507a3.508,3.508,0,0,0,3.5-3.513V297.156a3.506,3.506,0,0,0-3.5-3.512h-51.507Zm-.033,57.933c-1.995,0-3.61,1.962-3.61,4.378v11.692c0,2.423,1.615,4.385,3.61,4.385h51.427c2,0,3.606-1.962,3.606-4.385V355.953c0-2.416-1.611-4.378-3.606-4.378Z"/>
    <path id="Path_27" data-name="Path 27" d="M-654.525,296.949a3.071,3.071,0,0,0-3.073,3.074V346.9a3.074,3.074,0,0,0,3.073,3.074h49.8a3.072,3.072,0,0,0,3.074-3.074v-46.88a3.071,3.071,0,0,0-3.074-3.074Zm1.753,1.906h46.242a3.072,3.072,0,0,1,3.073,3.074V345.15a3.072,3.072,0,0,1-3.073,3.075h-46.242a3.075,3.075,0,0,1-3.073-3.075V301.928a3.074,3.074,0,0,1,3.073-3.074Zm-1.7,56.125a3.071,3.071,0,0,0-3.071,3.072v11.292a3.07,3.07,0,0,0,3.071,3.069h49.886a3.07,3.07,0,0,0,3.069-3.069V358.052a3.071,3.071,0,0,0-3.069-3.072Zm.248,1.5h49.18a1.838,1.838,0,0,1,1.839,1.843v10.9a1.836,1.836,0,0,1-.538,1.3,1.835,1.835,0,0,1-1.3.538h-49.18a1.841,1.841,0,0,1-1.843-1.839v-10.9A1.844,1.844,0,0,1-654.222,356.479ZM-629.5,301.5l-5.065,16.2-17.309.092,14,9.664-5.159,16.2L-629.59,334l13.9,9.757-5.25-16.3,13.442-9.664h-16.76Zm-.093,5.615,3.5,12.612h12.707l-10.128,7.365,4.421,11.877-10.682-7.643-9.577,7.364,3.776-12.059-9.759-7,12.336.092Z" transform="translate(-1.933 -1.946)" fill="#ffd530"/>
    <path id="Path_28" data-name="Path 28" d="M-618,380.246l.028,9.254,2.018-.027v-3.7h.872l.026,3.7,1.909.027v-3.728l-.955-.9.955-.868v-2.469l-1.349-1.289Zm2.045,1.767h.872v1.992l-.872.026Zm-6.953-1.794-1.234,9.224h2.075l.112-1.68h1.151l.168,1.68h2.046l-1.317-9.224Zm1.486,1.989.477,3.788h-.842ZM-636,387.733l-.027,1.74h2.047v-1.74Zm9.226-.026.027,1.736h2.02v-1.736Zm18.9-7.461-.729,4.431-.759-4.4h-2.409l-.026,9.2h1.879V383.61l.895,5.863h.812l.9-5.863v5.863h1.909l-.056-9.227Zm-23.638,0-1.248,1.249v2.873l1.325,1.326h1.549v1.982h-.841V386.5h-2.075v1.654l1.318,1.319h2.3l1.346-1.349v-2.83l-1.374-1.372H-630.7v-1.936h.756l.028,1.2h1.991v-1.654l-1.4-1.289Zm26.792-.013,1.694,5.313.043,3.911h2.075v-3.911l1.727-5.313h-2.018l-.746,3.225-.729-3.225Zm-34.561-.013v7.487h-.812v-7.46l-2.1-.023v7.957l1.346,1.293h2.382l1.29-1.349v-7.9Zm18.793-47.719-2.548,9.427-9.224-.068,7.3,5.227-2.822,9.014,7.158-5.5,7.981,5.714-3.3-8.878,7.573-5.5h-9.5Z" transform="translate(-10.994 -22.869)" fill="#fff"/>
  </g>
</svg>
